<?xml version="1.0" standalone="no"?>
<!DOCTYPE svg PUBLIC "-//W3C//DTD SVG 1.1//EN" "http://www.w3.org/Graphics/SVG/1.1/DTD/svg11.dtd" >
<!--
2013-9-30: Created.
-->
<svg>
<metadata>
Created by iconfont
</metadata>
<defs>

<font id="iconfont" horiz-adv-x="1024" >
  <font-face
    font-family="iconfont"
    font-weight="500"
    font-stretch="normal"
    units-per-em="1024"
    ascent="896"
    descent="-128"
  />
    <missing-glyph />
    
    <glyph glyph-name="x" unicode="x" horiz-adv-x="1001"
d="M281 543q-27 -1 -53 -1h-83q-18 0 -36.5 -6t-32.5 -18.5t-23 -32t-9 -45.5v-76h912v41q0 16 -0.5 30t-0.5 18q0 13 -5 29t-17 29.5t-31.5 22.5t-49.5 9h-133v-97h-438v97zM955 310v-52q0 -23 0.5 -52t0.5 -58t-10.5 -47.5t-26 -30t-33 -16t-31.5 -4.5q-14 -1 -29.5 -0.5
t-29.5 0.5h-32l-45 128h-439l-44 -128h-29h-34q-20 0 -45 1q-25 0 -41 9.5t-25.5 23t-13.5 29.5t-4 30v167h911zM163 247q-12 0 -21 -8.5t-9 -21.5t9 -21.5t21 -8.5q13 0 22 8.5t9 21.5t-9 21.5t-22 8.5zM316 123q-8 -26 -14 -48q-5 -19 -10.5 -37t-7.5 -25t-3 -15t1 -14.5
t9.5 -10.5t21.5 -4h37h67h81h80h64h36q23 0 34 12t2 38q-5 13 -9.5 30.5t-9.5 34.5q-5 19 -11 39h-368zM336 498v228q0 11 2.5 23t10 21.5t20.5 15.5t34 6h188q31 0 51.5 -14.5t20.5 -52.5v-227h-327z" />
    

    
    <glyph glyph-name="guanbi" unicode="&#58923;" d="M511.663332 745.710224c-244.277516 0-442.303638-198.026122-442.303638-442.303638s198.026122-442.303638 442.303638-442.303638 442.303638 198.026122 442.303638 442.303638S755.940848 745.710224 511.663332 745.710224zM703.118805 111.951113c-14.393825-14.393825-37.789675-14.335497-52.011584-0.11461L520.677637 242.266088 390.248052 111.837526c-14.331403-14.331403-37.517475-14.380522-52.011584 0.11461-14.393825 14.393825-14.33652 37.789675-0.11461 52.011584l130.429585 130.429585L338.121857 424.821867c-14.331403 14.331403-14.380522 37.517475 0.11461 52.011584 14.393825 14.393825 37.789675 14.335497 52.011584 0.11461l130.429585-130.429585 130.429585 130.429585c14.331403 14.331403 37.517475 14.380522 52.011584-0.11461 14.393825-14.393825 14.33652-37.789675 0.11461-52.011584L572.803831 294.392282l130.429585-130.429585C717.563796 149.632317 717.612914 126.446245 703.118805 111.951113z"  horiz-adv-x="1024" />

    
    <glyph glyph-name="shijain" unicode="&#59068;" d="M512.199 892.615c-281.060 0-508.7-227.755-508.7-508.956 0-280.491 227.641-508.245 508.7-508.245s508.615 227.755 508.615 508.245c0 281.173-227.556 508.956-508.615 508.956zM817.806 122.596l-51.57 51.086-24.064-23.808 52.252-52.508c-68.779-67.982-161.877-110.99-264.988-115.143v75.605l-34.219-0v-75.605c-94.464 3.925-180.594 40.704-247.097 98.503l54.101 54.784-24.149 23.808-55.040-55.040c-64.37 66.816-105.756 155.62-112.014 254.123h62.891v33.991l-63.801-0c2.332 106.61 46.137 203.492 115.257 274.005l38.969-38.827 24.036 24.036-37.689 37.973c66.247 56.633 151.239 92.245 244.565 95.744v-52.252h34.219v52.252c101.632-3.698 193.792-46.023 262.343-112.384l-30.18-30.066 24.149-24.036 29.355 29.127c59.904-68.466 96.882-157.468 99.1-255.516h-56.775v-33.991h56.092c-5.916-90.197-40.732-171.804-95.744-235.861zM655.815 388.267h-76.772c-7.765 16.64-23.381 29.156-42.098 31.915v154.681c0 13.198-10.866 24.064-24.149 24.064-13.312 0-24.064-10.866-24.064-24.064v-168.818c-11.321-10.866-18.261-25.429-18.261-41.842 0-31.687 25.202-57.116 57.003-57.116 22.528 0 42.325 13.397 51.57 33.052h76.772c13.397 0 24.263 10.866 24.263 24.064-0 13.426-10.866 24.064-24.263 24.064z"  horiz-adv-x="1024" />

    
    <glyph glyph-name="wifi" unicode="&#58966;" d="M329.579 185.439c15.712-15.717 41.167-15.717 56.861 0 68.827 68.852 180.794 68.852 249.606 0 15.712-15.717 41.18-15.717 56.87 0 7.847 7.851 11.76 18.122 11.76 28.451 0 10.29-3.918 20.589-11.76 28.434-100.18 100.234-263.156 100.234-363.339 0-15.686-15.694-15.686-41.165 0-56.886v0zM191.444 370.513c-15.686-15.712-15.686-41.189 0-56.907 15.712-15.717 41.161-15.717 56.861 0 144.976 145.090 380.878 145.090 525.858 0 15.702-15.717 41.167-15.717 56.854 0 7.849 7.851 11.79 18.163 11.79 28.451 0 10.306-3.94 20.589-11.79 28.451-85.412 85.47-198.973 132.535-319.775 132.535s-234.364-47.063-319.791-132.535v0zM64.921 513.452c-15.702-15.712-15.702-41.189 0-56.895s41.153-15.712 56.854 0c104.038 104.097 242.359 161.417 389.467 161.417s285.425-57.328 389.441-161.417c15.722-15.712 41.167-15.712 56.861 0 7.847 7.851 11.771 18.154 11.771 28.451 0 10.29-3.927 20.589-11.771 28.439-119.206 119.297-277.728 184.986-446.3 184.986-168.603 0-327.115-65.686-446.323-184.986v0zM511.247 19.486c31.043 0 56.207 25.18 56.207 56.241s-25.166 56.241-56.207 56.241-56.207-25.18-56.207-56.241c0-31.060 25.166-56.241 56.207-56.241v0z"  horiz-adv-x="1024" />

    
    <glyph glyph-name="riqi" unicode="&#58884;" d="M478.90101 283.668687 545.09899 283.668687c18.535434 0 33.09899 14.563556 33.09899 33.09899s-14.563556 33.100283-33.09899 33.100283l-66.19798 0c-18.535434 0-33.09899-14.564848-33.09899-33.100283S460.365576 283.668687 478.90101 283.668687L478.90101 283.668687zM478.90101 151.272727 545.09899 151.272727c18.535434 0 33.09899 14.564848 33.09899 33.100283s-14.563556 33.09899-33.09899 33.09899l-66.19798 0c-18.535434 0-33.09899-14.563556-33.09899-33.09899S460.365576 151.272727 478.90101 151.272727L478.90101 151.272727zM842.988606 747.054545 710.593939 747.054545 710.593939 780.153535c0 18.535434-14.564848 33.09899-33.100283 33.09899s-33.09899-14.563556-33.09899-33.09899l0-33.09899L379.60404 747.054545 379.60404 780.153535c0 18.535434-14.563556 33.09899-33.09899 33.09899s-33.09899-14.563556-33.09899-33.09899l0-33.09899L181.010101 747.054545C108.192323 747.054545 48.614141 687.476364 48.614141 614.658586L48.614141 85.074747C48.614141 12.25697 108.192323-47.321212 181.010101-47.321212l661.979798 0c72.817778 0 132.39596 59.578182 132.39596 132.394667L975.385859 614.658586C975.385859 687.476364 915.807677 747.054545 842.988606 747.054545L842.988606 747.054545zM909.187879 85.074747c0-36.407596-29.789091-66.196687-66.19798-66.196687l-661.979798 0c-36.408889 0-66.19798 29.789091-66.19798 66.196687L114.812121 482.262626l794.375758 0L909.187879 85.074747 909.187879 85.074747zM909.187879 548.460606 114.812121 548.460606l0 66.19798c0 36.408889 29.789091 66.19798 66.19798 66.19798l132.39596 0L313.406061 647.757576c0-18.535434 14.563556-33.09899 33.09899-33.09899S379.60404 629.222141 379.60404 647.757576l0 33.09899 264.791919 0L644.39596 647.757576c0-18.535434 14.563556-33.09899 33.09899-33.09899S710.593939 629.222141 710.593939 647.757576l0 33.09899 132.394667 0c36.408889 0 66.19798-29.789091 66.19798-66.19798L909.186586 548.460606 909.187879 548.460606zM280.307071 151.272727l66.19798 0c18.535434 0 33.09899 14.564848 33.09899 33.100283s-14.563556 33.09899-33.09899 33.09899l-66.19798 0c-18.535434 0-33.09899-14.563556-33.09899-33.09899S261.771636 151.272727 280.307071 151.272727L280.307071 151.272727zM677.493657 283.668687l66.19798 0c18.535434 0 33.100283 14.563556 33.100283 33.09899s-14.564848 33.100283-33.100283 33.100283l-66.19798 0c-18.535434 0-33.09899-14.564848-33.09899-33.100283S658.958222 283.668687 677.493657 283.668687L677.493657 283.668687zM280.307071 283.668687l66.19798 0c18.535434 0 33.09899 14.563556 33.09899 33.09899s-14.563556 33.100283-33.09899 33.100283l-66.19798 0c-18.535434 0-33.09899-14.564848-33.09899-33.100283S261.771636 283.668687 280.307071 283.668687L280.307071 283.668687zM677.493657 151.272727l66.19798 0c18.535434 0 33.100283 14.564848 33.100283 33.100283s-14.564848 33.09899-33.100283 33.09899l-66.19798 0c-18.535434 0-33.09899-14.563556-33.09899-33.09899S658.958222 151.272727 677.493657 151.272727L677.493657 151.272727z"  horiz-adv-x="1024" />

    
    <glyph glyph-name="jiudian" unicode="&#59321;" d="M956.491467 104.610802h-54.231136V525.200906c0 30.53034-16.067954 62.666248-47.000453 62.666248h-130.154316c-20.487613 0-46.196135-23.299659-46.196135-44.188408v-439.068967H642.35386V748.55181c0 30.53034-16.470113 62.666248-47.40159 62.666248H186.012508c-30.53034 0-64.674998-32.136931-64.674999-62.666248v-643.941008H67.50751c-1.205455 0-2.00875-0.803295-2.00875-2.00875v-143.812383c0-1.205455 0.803295-2.00875 2.00875-2.00875h888.983957c1.205455 0 2.00875 0.803295 2.00875 2.00875V102.602052c0 1.205455-0.803295 2.00875-2.00875 2.00875zM342.67864 328.362842c0-20.487613-16.470113-37.358863-37.358863-37.358863h-73.111134c-20.487613 0-37.358863 16.470113-37.358863 37.358863v73.513294c0 20.487613 16.470113 37.358863 37.358863 37.358863h73.513294c20.487613 0 37.358863-16.470113 37.358862-37.358863v-73.513294h-0.402159z m0 224.556359c0-20.487613-16.470113-37.358863-37.358863-37.358863h-73.111134c-20.487613 0-37.358863 16.470113-37.358863 37.358863v73.111134c0 20.487613 16.470113 37.358863 37.358863 37.358863h73.513294c20.487613 0 37.358863-16.470113 37.358862-37.358863v-73.111134h-0.402159z m223.350904-224.556359c0-20.487613-16.470113-37.358863-37.358863-37.358863h-73.513294c-20.487613 0-37.358863 16.470113-37.358862 37.358863v73.513294c0 20.487613 16.470113 37.358863 37.358862 37.358863h73.513294c20.487613 0 37.358863-16.470113 37.358863-37.358863v-73.513294z m0 224.556359c0-20.487613-16.470113-37.358863-37.358863-37.358863h-73.513294c-20.487613 0-37.358863 16.470113-37.358862 37.358863v73.111134c0 20.487613 16.470113 37.358863 37.358862 37.358863h73.513294c20.487613 0 37.358863-16.470113 37.358863-37.358863v-73.111134z m280.394085-335.427492c0-20.487613-16.470113-37.358863-37.358863-37.358863H772.508175c-20.487613 0-37.358863 16.470113-37.358862 37.358863v36.555567c0 20.487613 16.470113 37.358863 37.358862 37.358863h36.555568c20.487613 0 37.358863-16.470113 37.358862-37.358863v-36.555567z m0 185.589882c0-20.487613-16.470113-37.358863-37.358863-37.358863H772.508175c-20.487613 0-37.358863 16.470113-37.358862 37.358863v36.555567c0 20.487613 16.470113 37.358863 37.358862 37.358863h36.555568c20.487613 0 37.358863-16.470113 37.358862-37.358863l0.001024-36.555567z"  horiz-adv-x="1024" />

    
    <glyph glyph-name="lanyalianjie" unicode="&#59625;" d="M499.234133 896v-388.334933L222.071467 742.4 136.533333 669.969067 474.112 384 136.533333 98.065067 222.071467 25.6l277.162666 234.734933V-128h60.416L904.533333 164.113067 645.2224 384 904.533333 603.886933 559.684267 896h-60.450134z m120.900267-196.096l113.629867-96.256-113.664-95.982933V699.904z m0-439.296l113.629867-96.494933-113.664-96.017067v192.512z"  horiz-adv-x="1024" />

    
    <glyph glyph-name="fangjian" unicode="&#58899;" d="M452 58.96875H249.6875c-34.6875 0-62.90625 28.21875-62.90625 62.90625V504.1875c0 13.96875 11.34375 25.3125 25.3125 25.3125s25.3125-11.34375 25.3125-25.3125v-382.3125c0-6.75 5.53125-12.28125 12.28125-12.28125H452c13.96875 0 25.3125-11.34375 25.3125-25.3125s-11.34375-25.3125-25.3125-25.3125zM812.1875 358.875c-13.96875 0-25.3125 11.34375-25.3125 25.3125V498.375c0 13.96875 11.34375 25.3125 25.3125 25.3125s25.3125-11.34375 25.3125-25.3125v-114.1875c0-13.96875-11.34375-25.3125-25.3125-25.3125zM774.5 58.96875H572.09375c-13.96875 0-25.3125 11.34375-25.3125 25.3125s11.34375 25.3125 25.3125 25.3125H774.5c6.75 0 12.28125 5.53125 12.28125 12.28125v82.21875c0 13.96875 11.34375 25.3125 25.3125 25.3125s25.3125-11.34375 25.3125-25.3125v-82.21875c0.09375-34.6875-28.125-62.90625-62.90625-62.90625zM110.75 399c-7.40625 0-14.8125 3.28125-19.78125 9.5625-8.71875 10.96875-6.9375 26.8125 4.03125 35.53125l369.75 294.9375c13.21875 10.5 29.71875 16.3125 46.59375 16.3125h0.09375c16.875 0 33.46875-5.8125 46.6875-16.40625L902 463.5c10.875-8.71875 12.65625-24.65625 3.9375-35.625-8.71875-10.875-24.65625-12.65625-35.625-3.9375L526.34375 699.46875c-8.8125 7.125-21.1875 7.125-30.09375 0L126.5 404.53125c-4.59375-3.75-10.21875-5.53125-15.75-5.53125zM572.09375 58.96875c-1.5 0-2.90625 0.09375-4.3125 0.375-1.40625-0.28125-2.8125-0.375-4.3125-0.375H452c-13.96875 0-25.3125 11.34375-25.3125 25.3125V263.90625c0 47.0625 38.34375 85.40625 85.40625 85.40625 22.78125 0 44.25-8.90625 60.375-25.03125 16.125-16.125 25.03125-37.59375 25.03125-60.375v-179.625c-0.09375-13.96875-11.4375-25.3125-25.40625-25.3125z m-94.78125 50.625h69.5625V263.90625c0 9.28125-3.65625 18-10.21875 24.5625S521.375 298.6875 512.09375 298.6875c-19.125 0-34.78125-15.5625-34.78125-34.78125v-154.3125z"  horiz-adv-x="1024" />

    
    <glyph glyph-name="gengduo" unicode="&#60718;" d="M61.44 389.12c0 34.75456 17.88928 66.8672 46.92992 84.24448a91.0336 91.0336 0 0 0 93.87008 0c29.05088-17.37728 46.94016-49.48992 46.92992-84.24448 0-34.75456-17.87904-66.8672-46.92992-84.24448a91.0336 91.0336 0 0 0-93.87008 0C79.32928 322.2528 61.44 354.36544 61.44 389.12z m356.68992 0c0 34.75456 17.88928 66.8672 46.94016 84.23424a91.0336 91.0336 0 0 0 93.85984 0c29.05088-17.36704 46.94016-49.47968 46.94016-84.23424 0-34.75456-17.88928-66.8672-46.94016-84.23424a91.0336 91.0336 0 0 0-93.85984 0c-29.05088 17.36704-46.94016 49.47968-46.94016 84.23424z m356.70016 0c0 34.75456 17.87904 66.8672 46.92992 84.24448a91.0336 91.0336 0 0 0 93.87008 0C944.67072 455.9872 962.56 423.87456 962.56 389.12s-17.88928-66.8672-46.92992-84.24448a91.0336 91.0336 0 0 0-93.87008 0c-29.05088 17.37728-46.94016 49.48992-46.92992 84.24448z"  horiz-adv-x="1024" />

    
    <glyph glyph-name="icon_unlock" unicode="&#58909;" d="M0 384C0 666.771456 229.23264 896 512 896s512-229.228544 512-512c0-282.76736-229.23264-512-512-512S0 101.23264 0 384z m543.834112-80.11776l-29.540352 29.53216 39.911424 39.911424a20.8896 20.8896 0 1 0 29.536256-29.53216l-39.907328-39.911424z m-29.540352-29.540352l-39.907328-39.907328a20.8896 20.8896 0 0 0-29.536256 29.53216l39.907328 39.91552 29.536256-29.540352z m190.0544 197.431296h-42.450944V526.061568c0 82.04288-67.198976 148.754432-149.876736 148.754432-82.681856 0-149.95456-66.715648-149.95456-148.754432v-54.288384H319.643648c-20.451328 0-37.023744-16.44544-37.023744-36.74112v-268.20608c0-20.328448 16.576512-36.777984 37.02784-36.777984h384.733184c20.455424 0 36.990976 16.44544 36.990976 36.777984v268.20608c0 20.299776-16.572416 36.74112-37.02784 36.74112z m-160.514048-167.89504l39.907328-39.907328a20.8896 20.8896 0 0 0-29.53216-29.536256l-39.91552 39.907328 29.540352 29.540352z m-59.076608 0l-39.907328 39.911424a20.8896 20.8896 0 1 0 29.53216 29.536256l39.911424-39.907328-29.53216-29.536256z m119.619584 167.89504h-184.721408V523.63264c0 50.532352 41.472 91.684864 92.397568 91.684864s92.32384-41.152512 92.32384-91.684864v-51.85536z"  horiz-adv-x="1024" />

    
    <glyph glyph-name="ic_lock" unicode="&#58910;" d="M512 896c282.76736 0 512-229.228544 512-512 0-282.76736-229.23264-512-512-512S0 101.23264 0 384C0 666.771456 229.23264 896 512 896z m192.34816-424.22272h-42.450944V526.057472c0 82.04288-67.198976 148.754432-149.876736 148.754432-82.681856 0-149.95456-66.715648-149.95456-148.754432v-54.288384H319.643648c-20.451328 0-37.023744-16.44544-37.023744-36.74112v-268.20608c0-20.328448 16.576512-36.777984 37.02784-36.777984h384.733184c20.455424 0 36.990976 16.44544 36.990976 36.777984v268.20608c0 20.299776-16.572416 36.74112-37.02784 36.74112z m-171.54048-177.836032v-58.568704a4.87424 4.87424 0 0 0-4.857856-4.820992h-31.82592a4.886528 4.886528 0 0 0-4.89472 4.820992v58.568704c-14.954496 7.585792-25.31328 22.798336-25.31328 40.628224 0 25.227264 20.64384 45.744128 46.067712 45.744128 25.460736 0 46.104576-20.52096 46.104576-45.744128 0.036864-17.829888-10.32192-33.042432-25.276416-40.63232z m71.569408 177.831936h-184.721408V523.63264c0 50.532352 41.472 91.684864 92.397568 91.684864s92.32384-41.152512 92.32384-91.684864v-51.85536z"  horiz-adv-x="1024" />

    
    <glyph glyph-name="icon_close" unicode="&#58911;" d="M512 896C794.764274 896 1024 666.778301 1024 384 1024 101.235726 794.764274-128 512-128S0 101.235726 0 384C0 666.792329 229.235726 896 512 896zM345.635068 464.503233h92.608877l56.488329 78.328986h-149.111233c-66.812493 0-121.182685-55.155726-121.182685-122.922082v-71.203069c0-67.780384 54.370192-122.93611 121.196712-122.936109h149.097206l-57.694685 78.328986H345.635068c-24.25337 0-43.97589 20.003068-43.97589 44.607123V419.910137c0 24.590027 19.722521 44.593096 43.97589 44.593096z m346.757261 78.328986H543.295123l56.488329-78.328986h92.608877c24.25337 0 43.97589-20.003068 43.97589-44.607123v-71.189042c0-24.604055-19.722521-44.607123-43.97589-44.607123h-91.402521l-57.694685-78.328986h149.111233c66.812493 0 121.182685 55.155726 121.182685 122.936109V419.910137c0 67.766356-54.370192 122.922082-121.196712 122.922082zM500.427397 685.589041v-95.49852h37.172603V685.589041h-37.172603z m147.021151-59.279781l-26.287343 26.652055-76.126684-63.488 26.287342-26.652055 76.126685 63.488z m-154.441644-36.835945l-76.140712 63.488-26.287343-26.652055 76.140713-63.488 26.273315 26.652055z m7.420493-411.563836V82.410959h37.172603v95.49852h-37.172603z m44.607124 0.603179l76.126684-63.488 26.287343 26.666082-76.126685 63.488-26.287342-26.652055z m-154.441644-36.821918l26.273315-26.652055 76.126685 63.473973-26.273315 26.652054-76.140713-63.473972z"  horiz-adv-x="1024" />

    
    <glyph glyph-name="ic_passoword" unicode="&#58912;" d="M512 896C794.764274 896 1024 666.778301 1024 384 1024 101.235726 794.764274-128 512-128S0 101.235726 0 384C0 666.792329 229.235726 896 512 896z m297.33874-499.291178C760.635616 505.561425 645.681096 615.452055 519.672986 615.452055c-126.036164 0-240.990685-109.89063-289.399233-218.743233L224.438356 384.280548l5.835397-12.442301c48.422575-108.459836 163.363068-218.729205 289.385206-218.729206 126.022137 0 240.976658 110.255342 289.665753 218.729206l5.582904 12.442301-5.568876 12.428274z m-213.258521 49.656986c0-23.131178-14.869041-41.619288-33.553534-41.619287-18.670466 0-33.84811 18.48811-33.84811 41.60526 0 22.766466 15.177644 41.268603 33.84811 41.268603 2.328548 0 4.376548-1.066082 6.719123-1.430795-16.931068 14.588493-37.663562 23.481863-59.812822 23.481863-57.764822 0-104.448-57.624548-104.448-128.771507 0-70.754192 46.683178-128.37874 104.448-128.37874s104.433973 57.624548 104.433973 128.392768c0 27.395507-7.294247 52.995507-19.259617 73.629808 0.589151-2.847562 1.472877-5.330411 1.472877-8.192zM507.651507 202.639781c-103.844822 0-202.162849 90.701151-247.10663 179.957479 44.943781 89.635068 143.261808 179.943452 247.10663 179.943452 103.844822 0 202.162849-90.322411 247.092603-179.943452-44.929753-89.256329-143.247781-179.971507-247.092603-179.971507z"  horiz-adv-x="1024" />

    
    <glyph glyph-name="ic_open" unicode="&#58913;" d="M512 896C794.764274 896 1024 666.778301 1024 384 1024 101.235726 794.764274-128 512-128S0 101.235726 0 384C0 666.792329 229.235726 896 512 896zM362.566137 464.503233h94.825205l57.848987 78.328986H362.566137C294.154521 542.832219 238.465753 487.676493 238.465753 419.910137v-71.203069c0-67.780384 55.688767-122.93611 124.100384-122.936109h152.674192l-59.06937 78.328986h-93.604822c-24.828493 0-45.027945 20.003068-45.027945 44.607123V419.910137c0 24.590027 20.199452 44.593096 45.027945 44.593096z m301.771397 78.328986H515.240329l56.488329-78.328986h92.608876c24.25337 0 43.97589-20.003068 43.975891-44.607123v-71.189042c0-24.604055-19.722521-44.607123-43.975891-44.607123h-91.40252l-57.694685-78.328986h149.111233c66.812493 0 121.182685 55.155726 121.182685 122.936109V419.910137c0 67.766356-54.370192 122.922082-121.196713 122.922082z"  horiz-adv-x="1024" />

    
    <glyph glyph-name="ic_detail" unicode="&#58914;" d="M512 896C794.764274 896 1024 666.778301 1024 384 1024 101.235726 794.764274-128 512-128S0 101.235726 0 384C0 666.792329 229.235726 896 512 896z m162.844055-274.207562h-27.213151a20.059178 20.059178 0 0 1 0-40.118356h27.213151c13.003397 0 23.790466-3.927671 31.196931-11.334137 7.420493-7.406466 11.334137-18.193534 11.334137-31.196931v-319.333699c0-13.003397-3.927671-23.790466-11.334137-31.210959-7.406466-7.406466-18.193534-11.32011-31.196931-11.320109H363.183342c-13.003397 0-23.790466 3.913644-31.196931 11.320109-7.420493 7.420493-11.334137 18.207562-11.334137 31.210959V539.143014c0 13.003397 3.927671 23.790466 11.334137 31.196931 7.406466 7.420493 18.193534 11.334137 31.196931 11.334137h27.213151a20.059178 20.059178 0 0 1 0 40.118356h-27.213151c-48.661041 0-82.635397-33.988384-82.635397-82.649424v-319.333699c0-48.661041 33.974356-82.649425 82.635397-82.649425h311.660713c48.661041 0 82.635397 33.988384 82.635397 82.649425V539.143014c0 48.661041-33.974356 82.649425-82.635397 82.649424zM395.937315 479.470466c0-10.576658 9.019616-19.217534 20.031123-19.217534h206.090521c11.011507 0 20.031123 8.640877 20.031123 19.217534 0 10.576658-9.019616 19.231562-20.031123 19.231561H415.968438c-11.011507 0-20.031123-8.654904-20.031123-19.217534z m79.465206 100.015342h91.07989c14.083507 0 25.614027 11.235945 25.614027 24.996822 0 13.746849-11.530521 24.996822-25.614027 24.996822H475.388493c-14.097534 0-25.614027-11.249973-25.614027-24.996822s11.516493-25.010849 25.614027-25.010849zM642.090082 391.013699c0 10.576658-9.019616 19.231562-20.031123 19.231561H415.968438c-11.011507 0-20.031123-8.654904-20.031123-19.231561s9.019616-19.231562 20.031123-19.231562h206.090521c11.011507 0 20.031123 8.654904 20.031123 19.231562z m-20.031123-69.225206H415.968438c-11.011507 0-20.031123-8.654904-20.031123-19.231561s9.019616-19.231562 20.031123-19.231562h206.090521c11.011507 0 20.031123 8.654904 20.031123 19.217534 0 10.590685-9.019616 19.245589-20.031123 19.245589z"  horiz-adv-x="1024" />

    
    <glyph glyph-name="ic_home" unicode="&#58915;" d="M93.343289-128A47.945956 47.945956 0 0 0 45.511111-79.985778V535.779556c0 15.177956 7.190756 29.445689 19.319467 38.525155L483.510044 886.510933a47.695644 47.695644 0 0 0 57.048178 0l418.6112-312.206222c12.128711-9.102222 19.319467-23.3472 19.319467-38.5024V-79.985778c0-26.487467-21.390222-48.014222-47.832178-48.014222H93.343289z m308.701867 119.808v-119.625956h237.681777v119.625956a118.875022 118.875022 0 0 1-118.829511 118.920533 118.966044 118.966044 0 0 1-118.852266-118.920533z"  horiz-adv-x="1024" />

    
    <glyph glyph-name="ic_menu" unicode="&#58916;" d="M0.000293 822.856871C0.000293 863.231717 32.59274 895.999707 73.055357 895.999707h1316.746596A72.908779 72.908779 0 0 0 1462.857017 822.856871C1462.857017 782.482026 1430.26457 749.714035 1389.801953 749.714035H73.055357A72.908779 72.908779 0 0 0 0.000293 822.856871z m0-438.857017C0.000293 424.374699 32.79754 457.14269 73.318672 457.14269h731.077276A73.055065 73.055065 0 0 0 877.714328 383.999854c0-40.374846-32.797248-73.142836-73.31838-73.142837H73.318672A73.055065 73.055065 0 0 0 0.000293 383.999854z m0-438.857018C0.000293-14.482318 32.59274 18.285672 73.055357 18.285672h1316.746596A72.908779 72.908779 0 0 0 1462.857017-54.857164c0-40.374846-32.592448-73.142836-73.055064-73.142836H73.055357A72.908779 72.908779 0 0 0 0.000293-54.857164z"  horiz-adv-x="1462" />

    
    <glyph glyph-name="ic_back" unicode="&#58917;" d="M686.08 889.856C349.2608 557.056 331.008 541.2352 286.8736 494.4896 257.6128 463.5392 230.4 438.272 230.4 388.2496c0-54.4768 55.1424-102.2976 55.1424-102.2976l413.4656-407.168s48.768-20.5824 77.312 9.984c32.2816 34.5344 9.4208 79.6928 9.4208 79.6928L366.208 385.5872l414.1568 414.464s21.504 46.5152-13.44 79.7184C737.3312 908.9792 686.08 889.8304 686.08 889.8304z"  horiz-adv-x="1024" />

    
    <glyph glyph-name="icon_unlock1" unicode="&#58918;" d="M0 384C0 666.771456 229.23264 896 512 896s512-229.228544 512-512c0-282.76736-229.23264-512-512-512S0 101.23264 0 384z m535.158784-79.712256l72.404992-72.409088a20.48 20.48 0 1 0-28.95872-28.962816l-72.409088 72.409088-72.409088-72.409088a20.48 20.48 0 0 0-28.962816 28.962816l72.409088 72.409088-72.409088 72.404992a20.48 20.48 0 1 0 28.962816 28.962816l72.409088-72.404992 72.404992 72.404992a20.48 20.48 0 0 0 28.962816-28.95872l-72.404992-72.409088z m169.18528 167.48544h-42.446848V526.061568c0 82.04288-67.198976 148.754432-149.876736 148.754432-82.681856 0-149.95456-66.715648-149.95456-148.754432v-54.288384H319.643648c-20.451328 0-37.023744-16.44544-37.023744-36.74112v-268.20608c0-20.328448 16.576512-36.777984 37.02784-36.777984h384.733184c20.455424 0 36.990976 16.44544 36.990976 36.777984v268.20608c0 20.299776-16.572416 36.74112-37.02784 36.74112z m-99.966976 0h-184.721408V523.63264c0 50.532352 41.472 91.684864 92.397568 91.684864s92.32384-41.152512 92.32384-91.684864v-51.85536z"  horiz-adv-x="1024" />

    
    <glyph glyph-name="close-bt" unicode="&#58919;" d="M490.841854 450.831258L237.534093 664.582781 159.364238 598.626331 467.879841 338.225166 159.364238 77.851126l78.173245-65.983576 253.300981 213.751523V-128h55.214622L861.245033 137.995868 624.260238 338.225166l-133.421774 112.606092z m110.490278-224.964662l103.844451-87.870728-103.878358-87.433325v175.300662h0.033907zM491.655629 896v-353.619073l133.418384-112.606093 236.988186 200.229298L546.900768 896H491.655629z m110.490278-178.565934l103.847841-87.650331-103.878357-87.399417V717.437457h0.033907z"  horiz-adv-x="1024" />

    


  </font>
</defs>
</svg>
