<?xml version="1.0" encoding="UTF-8"?>
<svg width="375px" height="667px" viewBox="0 0 375 667" version="1.1" xmlns="http://www.w3.org/2000/svg" xmlns:xlink="http://www.w3.org/1999/xlink">
    <!-- Generator: Sketch 48.1 (47250) - http://www.bohemiancoding.com/sketch -->
    <title>list-svg</title>
    <desc>Created with Sketch.</desc>
    <defs></defs>
    <g id="启动页" stroke="none" stroke-width="1" fill="none" fill-rule="evenodd">
        <g id="list-svg" fill-rule="nonzero">
            <g id="shopback">
                <g id="b-link" fill="#000000">
                    <polygon id="b" points="0 0 376 0 376 90 0 90"></polygon>
                </g>
                <g id="b-link" fill="#FFFFFF">
                    <polygon id="b" points="0 0 376 0 376 90 0 90"></polygon>
                </g>
                <polygon id="Shape" fill="#F6F6F6" points="80 16 266 16 266 32 80 32"></polygon>
                <rect id="Rectangle-path" fill="#F6F6F6" x="10" y="16" width="60" height="60" rx="4"></rect>
                <path d="M80,41.4578313 L208.7,41.4578313 L208.7,51.939759 L80,51.939759 L80,41.4578313 Z M80,63.8192771 L192.656098,63.8192771 L192.656098,74.3012048 L80,74.3012048 L80,63.8192771 Z M282.990244,40.4096386 L366,40.4096386 L366,54.0361446 L282.990244,54.0361446 L282.990244,40.4096386 Z M281.595122,64.5180723 L366,64.5180723 L366,75 L281.595122,75 L281.595122,64.5180723 Z M319.612195,17 L366,17 L366,29.9277108 L319.612195,29.9277108 L319.612195,17 Z" id="Shape" fill="#F6F6F6"></path>
            </g>
            <g id="shopback" transform="translate(0.000000, 90.000000)">
                <g id="b-link" fill="#000000">
                    <polygon id="b" points="0 0 376 0 376 90 0 90"></polygon>
                </g>
                <g id="b-link" fill="#FFFFFF">
                    <polygon id="b" points="0 0 376 0 376 90 0 90"></polygon>
                </g>
                <polygon id="Shape" fill="#F6F6F6" points="80 16 266 16 266 32 80 32"></polygon>
                <rect id="Rectangle-path" fill="#F6F6F6" x="10" y="16" width="60" height="60" rx="4"></rect>
                <path d="M80,41.4578313 L208.7,41.4578313 L208.7,51.939759 L80,51.939759 L80,41.4578313 Z M80,63.8192771 L192.656098,63.8192771 L192.656098,74.3012048 L80,74.3012048 L80,63.8192771 Z M282.990244,40.4096386 L366,40.4096386 L366,54.0361446 L282.990244,54.0361446 L282.990244,40.4096386 Z M281.595122,64.5180723 L366,64.5180723 L366,75 L281.595122,75 L281.595122,64.5180723 Z M319.612195,17 L366,17 L366,29.9277108 L319.612195,29.9277108 L319.612195,17 Z" id="Shape" fill="#F6F6F6"></path>
            </g>
            <g id="shopback" transform="translate(0.000000, 180.000000)">
                <g id="b-link" fill="#000000">
                    <polygon id="b" points="0 0 376 0 376 90 0 90"></polygon>
                </g>
                <g id="b-link" fill="#FFFFFF">
                    <polygon id="b" points="0 0 376 0 376 90 0 90"></polygon>
                </g>
                <polygon id="Shape" fill="#F6F6F6" points="80 16 266 16 266 32 80 32"></polygon>
                <rect id="Rectangle-path" fill="#F6F6F6" x="10" y="16" width="60" height="60" rx="4"></rect>
                <path d="M80,41.4578313 L208.7,41.4578313 L208.7,51.939759 L80,51.939759 L80,41.4578313 Z M80,63.8192771 L192.656098,63.8192771 L192.656098,74.3012048 L80,74.3012048 L80,63.8192771 Z M282.990244,40.4096386 L366,40.4096386 L366,54.0361446 L282.990244,54.0361446 L282.990244,40.4096386 Z M281.595122,64.5180723 L366,64.5180723 L366,75 L281.595122,75 L281.595122,64.5180723 Z M319.612195,17 L366,17 L366,29.9277108 L319.612195,29.9277108 L319.612195,17 Z" id="Shape" fill="#F6F6F6"></path>
            </g>
            <g id="shopback" transform="translate(0.000000, 270.000000)">
                <g id="b-link" fill="#000000">
                    <polygon id="b" points="0 0 376 0 376 90 0 90"></polygon>
                </g>
                <g id="b-link" fill="#FFFFFF">
                    <polygon id="b" points="0 0 376 0 376 90 0 90"></polygon>
                </g>
                <polygon id="Shape" fill="#F6F6F6" points="80 16 266 16 266 32 80 32"></polygon>
                <rect id="Rectangle-path" fill="#F6F6F6" x="10" y="16" width="60" height="60" rx="4"></rect>
                <path d="M80,41.4578313 L208.7,41.4578313 L208.7,51.939759 L80,51.939759 L80,41.4578313 Z M80,63.8192771 L192.656098,63.8192771 L192.656098,74.3012048 L80,74.3012048 L80,63.8192771 Z M282.990244,40.4096386 L366,40.4096386 L366,54.0361446 L282.990244,54.0361446 L282.990244,40.4096386 Z M281.595122,64.5180723 L366,64.5180723 L366,75 L281.595122,75 L281.595122,64.5180723 Z M319.612195,17 L366,17 L366,29.9277108 L319.612195,29.9277108 L319.612195,17 Z" id="Shape" fill="#F6F6F6"></path>
            </g>
            <g id="shopback" transform="translate(0.000000, 360.000000)">
                <g id="b-link" fill="#000000">
                    <polygon id="b" points="0 0 376 0 376 90 0 90"></polygon>
                </g>
                <g id="b-link" fill="#FFFFFF">
                    <polygon id="b" points="0 0 376 0 376 90 0 90"></polygon>
                </g>
                <polygon id="Shape" fill="#F6F6F6" points="80 16 266 16 266 32 80 32"></polygon>
                <rect id="Rectangle-path" fill="#F6F6F6" x="10" y="16" width="60" height="60" rx="4"></rect>
                <path d="M80,41.4578313 L208.7,41.4578313 L208.7,51.939759 L80,51.939759 L80,41.4578313 Z M80,63.8192771 L192.656098,63.8192771 L192.656098,74.3012048 L80,74.3012048 L80,63.8192771 Z M282.990244,40.4096386 L366,40.4096386 L366,54.0361446 L282.990244,54.0361446 L282.990244,40.4096386 Z M281.595122,64.5180723 L366,64.5180723 L366,75 L281.595122,75 L281.595122,64.5180723 Z M319.612195,17 L366,17 L366,29.9277108 L319.612195,29.9277108 L319.612195,17 Z" id="Shape" fill="#F6F6F6"></path>
            </g>
            <g id="shopback" transform="translate(0.000000, 450.000000)">
                <g id="b-link" fill="#000000">
                    <polygon id="b" points="0 0 376 0 376 90 0 90"></polygon>
                </g>
                <g id="b-link" fill="#FFFFFF">
                    <polygon id="b" points="0 0 376 0 376 90 0 90"></polygon>
                </g>
                <polygon id="Shape" fill="#F6F6F6" points="80 16 266 16 266 32 80 32"></polygon>
                <rect id="Rectangle-path" fill="#F6F6F6" x="10" y="16" width="60" height="60" rx="4"></rect>
                <path d="M80,41.4578313 L208.7,41.4578313 L208.7,51.939759 L80,51.939759 L80,41.4578313 Z M80,63.8192771 L192.656098,63.8192771 L192.656098,74.3012048 L80,74.3012048 L80,63.8192771 Z M282.990244,40.4096386 L366,40.4096386 L366,54.0361446 L282.990244,54.0361446 L282.990244,40.4096386 Z M281.595122,64.5180723 L366,64.5180723 L366,75 L281.595122,75 L281.595122,64.5180723 Z M319.612195,17 L366,17 L366,29.9277108 L319.612195,29.9277108 L319.612195,17 Z" id="Shape" fill="#F6F6F6"></path>
            </g>
            <g id="shopback" transform="translate(0.000000, 540.000000)">
                <g id="b-link" fill="#000000">
                    <polygon id="b" points="0 0 376 0 376 90 0 90"></polygon>
                </g>
                <g id="b-link" fill="#FFFFFF">
                    <polygon id="b" points="0 0 376 0 376 90 0 90"></polygon>
                </g>
                <polygon id="Shape" fill="#F6F6F6" points="80 16 266 16 266 32 80 32"></polygon>
                <rect id="Rectangle-path" fill="#F6F6F6" x="10" y="16" width="60" height="60" rx="4"></rect>
                <path d="M80,41.4578313 L208.7,41.4578313 L208.7,51.939759 L80,51.939759 L80,41.4578313 Z M80,63.8192771 L192.656098,63.8192771 L192.656098,74.3012048 L80,74.3012048 L80,63.8192771 Z M282.990244,40.4096386 L366,40.4096386 L366,54.0361446 L282.990244,54.0361446 L282.990244,40.4096386 Z M281.595122,64.5180723 L366,64.5180723 L366,75 L281.595122,75 L281.595122,64.5180723 Z M319.612195,17 L366,17 L366,29.9277108 L319.612195,29.9277108 L319.612195,17 Z" id="Shape" fill="#F6F6F6"></path>
            </g>
            <g id="shopback" transform="translate(0.000000, 630.000000)">
                <g id="b-link" fill="#000000">
                    <polygon id="b" points="0 0 376 0 376 90 0 90"></polygon>
                </g>
                <g id="b-link" fill="#FFFFFF">
                    <polygon id="b" points="0 0 376 0 376 90 0 90"></polygon>
                </g>
                <polygon id="Shape" fill="#F6F6F6" points="80 16 266 16 266 32 80 32"></polygon>
                <rect id="Rectangle-path" fill="#F6F6F6" x="10" y="16" width="60" height="60" rx="4"></rect>
                <path d="M80,41.4578313 L208.7,41.4578313 L208.7,51.939759 L80,51.939759 L80,41.4578313 Z M80,63.8192771 L192.656098,63.8192771 L192.656098,74.3012048 L80,74.3012048 L80,63.8192771 Z M282.990244,40.4096386 L366,40.4096386 L366,54.0361446 L282.990244,54.0361446 L282.990244,40.4096386 Z M281.595122,64.5180723 L366,64.5180723 L366,75 L281.595122,75 L281.595122,64.5180723 Z M319.612195,17 L366,17 L366,29.9277108 L319.612195,29.9277108 L319.612195,17 Z" id="Shape" fill="#F6F6F6"></path>
            </g>
        </g>
    </g>
</svg>